<svg xmlns="http://www.w3.org/2000/svg" viewBox="0 0 1200 630">
  <rect width="1200" height="630" fill="#F6EFE6"/>
  <!-- soft backdrop shapes -->
  <circle cx="950" cy="120" r="220" fill="#EFE3D2"/>
  <circle cx="180" cy="560" r="180" fill="#EFE3D2"/>
  <!-- floor line -->
  <rect x="0" y="470" width="1200" height="160" fill="#E4C7B2"/>
  <!-- clock -->
  <circle cx="270" cy="220" r="130" fill="#FDFAF5" stroke="#2E2A24" stroke-width="10"/>
  <circle cx="270" cy="220" r="10" fill="#2E2A24"/>
  <line x1="270" y1="220" x2="270" y2="130" stroke="#B85C38" stroke-width="12" stroke-linecap="round"/>
  <line x1="270" y1="220" x2="340" y2="255" stroke="#2E2A24" stroke-width="10" stroke-linecap="round"/>
  <!-- 15-minute wedge -->
  <path d="M270 220 L270 90 A130 130 0 0 1 383 155 Z" fill="#D9A441" opacity="0.55"/>
  <!-- couch -->
  <rect x="520" y="340" width="380" height="130" rx="24" fill="#5C6E58"/>
  <rect x="500" y="300" width="90" height="150" rx="22" fill="#4E5F4B"/>
  <rect x="830" y="300" width="90" height="150" rx="22" fill="#4E5F4B"/>
  <rect x="560" y="300" width="140" height="70" rx="16" fill="#7A8C74"/>
  <rect x="716" y="300" width="140" height="70" rx="16" fill="#7A8C74"/>
  <rect x="540" y="470" width="24" height="34" rx="8" fill="#2E2A24"/>
  <rect x="856" y="470" width="24" height="34" rx="8" fill="#2E2A24"/>
  <!-- folded blanket on couch arm -->
  <rect x="512" y="272" width="70" height="14" rx="6" fill="#B85C38"/>
  <rect x="512" y="288" width="70" height="14" rx="6" fill="#D9A441"/>
  <!-- laundry basket -->
  <path d="M1000 380 L1110 380 L1094 480 L1016 480 Z" fill="#B85C38"/>
  <path d="M1000 380 L1110 380 L1106 404 L1004 404 Z" fill="#96482B"/>
  <ellipse cx="1040" cy="376" rx="26" ry="12" fill="#F6EFE6"/>
  <ellipse cx="1072" cy="372" rx="24" ry="11" fill="#E4C7B2"/>
  <!-- plant -->
  <rect x="90" y="400" width="56" height="70" rx="8" fill="#B85C38"/>
  <path d="M118 400 C118 340 80 330 66 300 C104 306 116 336 118 360 C120 330 136 306 166 296 C150 336 122 344 118 400 Z" fill="#5C6E58"/>
  <!-- sparkles -->
  <path d="M460 150 l8 22 22 8 -22 8 -8 22 -8 -22 -22 -8 22 -8 Z" fill="#D9A441"/>
  <path d="M1050 210 l6 17 17 6 -17 6 -6 17 -6 -17 -17 -6 17 -6 Z" fill="#B85C38"/>
  <path d="M640 200 l5 14 14 5 -14 5 -5 14 -5 -14 -14 -5 14 -5 Z" fill="#5C6E58"/>
</svg>
