<svg xmlns="http://www.w3.org/2000/svg" viewBox="0 0 1200 630">
  <rect width="1200" height="630" fill="#F6EFE6"/>
  <circle cx="220" cy="140" r="190" fill="#EFE3D2"/>
  <circle cx="1020" cy="520" r="200" fill="#EFE3D2"/>
  <!-- furnace body -->
  <rect x="430" y="120" width="340" height="420" rx="22" fill="#5C6E58"/>
  <rect x="460" y="150" width="280" height="120" rx="14" fill="#4E5F4B"/>
  <circle cx="600" cy="210" r="34" fill="#D9A441"/>
  <circle cx="600" cy="210" r="18" fill="#B85C38"/>
  <!-- vents -->
  <rect x="470" y="452" width="260" height="14" rx="7" fill="#4E5F4B"/>
  <rect x="470" y="480" width="260" height="14" rx="7" fill="#4E5F4B"/>
  <rect x="470" y="508" width="260" height="14" rx="7" fill="#4E5F4B"/>
  <!-- filter slot -->
  <rect x="452" y="300" width="296" height="120" rx="12" fill="#2E2A24"/>
  <!-- filter being inserted -->
  <g transform="translate(760 300) rotate(8)">
    <rect x="0" y="0" width="300" height="110" rx="10" fill="#FDFAF5" stroke="#2E2A24" stroke-width="8"/>
    <path d="M20 88 L50 22 L80 88 L110 22 L140 88 L170 22 L200 88 L230 22 L260 88" fill="none" stroke="#B85C38" stroke-width="10" stroke-linecap="round" stroke-linejoin="round"/>
  </g>
  <!-- airflow arrows -->
  <g fill="#D9A441">
    <path d="M180 320 h100 v-24 l60 44 -60 44 v-24 h-100 Z"/>
    <path d="M180 440 h100 v-24 l60 44 -60 44 v-24 h-100 Z" opacity="0.7"/>
    <path d="M180 200 h100 v-24 l60 44 -60 44 v-24 h-100 Z" opacity="0.7"/>
  </g>
  <!-- duct on top -->
  <rect x="520" y="40" width="160" height="80" fill="#E4C7B2"/>
  <rect x="520" y="40" width="160" height="20" fill="#D8B69C"/>
  <!-- dust motes -->
  <circle cx="250" cy="120" r="8" fill="#B85C38" opacity="0.6"/>
  <circle cx="300" cy="90" r="6" fill="#5C6E58" opacity="0.6"/>
  <circle cx="210" cy="70" r="5" fill="#D9A441"/>
</svg>
